<svg width="33" height="32" viewBox="0 0 33 32" fill="none" xmlns="http://www.w3.org/2000/svg">
<g clip-path="url(#clip0_5_95)">
<path d="M16.5 32C25.3366 32 32.5 24.8366 32.5 16C32.5 7.16344 25.3366 0 16.5 0C7.66344 0 0.5 7.16344 0.5 16C0.5 24.8366 7.66344 32 16.5 32Z" fill="#1877F2"/>
<path d="M18.9016 10.4475H20.6563V7.8042C19.8067 7.72552 18.9531 7.68668 18.0989 7.68783C15.5602 7.68783 13.8241 9.06765 13.8241 11.5946V13.7723H10.9587V16.7315H13.8241V24.3122H17.2589V16.7315H20.115L20.5443 13.7723H17.2589V11.8855C17.2589 11.0127 17.5202 10.4475 18.9016 10.4475Z" fill="white"/>
</g>
<defs>
<clipPath id="clip0_5_95">
<rect width="32" height="32" fill="white" transform="translate(0.5)"/>
</clipPath>
</defs>
</svg>
