<svg width="25" height="26" viewBox="0 0 25 26" fill="none" xmlns="http://www.w3.org/2000/svg">
<g clip-path="url(#clip0_5_135)">
<path d="M21.2441 0.5H3.75587C1.68156 0.5 0 2.18156 0 4.25587V21.7441C0 23.8184 1.68156 25.5 3.75587 25.5H21.2441C23.3184 25.5 25 23.8184 25 21.7441V4.25587C25 2.18156 23.3184 0.5 21.2441 0.5Z" fill="#349EF2" fill-opacity="0.2"/>
<path fill-rule="evenodd" clip-rule="evenodd" d="M16.7501 11.25C17.6251 11.25 18.2501 11.675 18.2501 12.475C18.2501 12.825 18.0251 13.175 17.7001 13.425C17.8501 13.6 17.9501 13.85 17.9501 14.05C17.9501 14.45 17.6501 14.775 17.3751 14.975C17.4501 15.125 17.5001 15.325 17.5001 15.55C17.5001 16 17.2001 16.4 16.7251 16.575C16.7501 16.65 16.7501 16.75 16.7501 16.85C16.7501 17.375 16.2001 17.975 15.45 17.975H11.875C11.4 17.975 10.975 17.775 10.575 17.575C10.3853 17.4728 10.1869 17.3792 10 17.3189V11.6047C10.7384 10.9992 11.5339 10.1916 11.875 9.275L12.25 7.25C12.275 7.15 12.325 7.05 12.425 7C12.775 6.775 13.025 6.75 13.375 6.75C13.9 6.75 14.5 7.2 14.5 9.375C14.5 9.925 14.4 10.575 14.225 11.25H16.7501ZM9.375 11.2596C9.3345 11.2533 9.29275 11.25 9.25 11.25H7C6.575 11.25 6.25 11.575 6.25 12V17.25C6.25 17.675 6.575 18 7 18H9.25C9.29275 18 9.3345 17.9967 9.375 17.9904V11.2596Z" fill="#349EF2"/>
</g>
<defs>
<clipPath id="clip0_5_135">
<rect width="25" height="25" fill="white" transform="translate(0 0.5)"/>
</clipPath>
</defs>
</svg>
