<svg width="38" height="37" viewBox="0 0 38 37" fill="none" xmlns="http://www.w3.org/2000/svg">
<g clip-path="url(#clip0_5_131)">
<path d="M19 36.35C28.8583 36.35 36.85 28.3583 36.85 18.5C36.85 8.64174 28.8583 0.650024 19 0.650024C9.14171 0.650024 1.14999 8.64174 1.14999 18.5C1.14999 28.3583 9.14171 36.35 19 36.35Z" stroke="#4A729A" stroke-width="1.3"/>
<path d="M10.5 19.4472C10.5 24.1833 14.3208 28 19 28C23.6792 28 27.5 24.1554 27.5 19.4472C27.5 17.107 26.5586 14.9619 25.0081 13.4018L25.6726 12.7331L25.9772 13.0396C26.1156 13.1789 26.2818 13.2346 26.4479 13.2346C26.614 13.2346 26.7801 13.1789 26.9186 13.0396C27.1678 12.7889 27.1678 12.3431 26.9186 12.0924L25.3681 10.5323C25.1189 10.2815 24.6759 10.2815 24.4267 10.5323C24.1775 10.783 24.1775 11.2287 24.4267 11.4795L24.7313 11.7859L23.9837 12.5381C22.7378 11.6188 21.2427 11.0337 19.6368 10.9223V10.3372H21.1042C21.4642 10.3372 21.7687 10.0308 21.7687 9.66862C21.7687 9.30645 21.4642 9 21.1042 9H16.7573C16.3974 9 16.0928 9.30645 16.0928 9.66862C16.0928 10.0308 16.3974 10.3372 16.7573 10.3372H18.3355V10.9223C13.9609 11.2566 10.5 14.934 10.5 19.4472ZM19 26.6628C15.0407 26.6628 11.829 23.4311 11.829 19.4472C11.829 15.4633 15.0407 12.2317 19 12.2317C22.9593 12.2317 26.171 15.4633 26.171 19.4472C26.171 23.4311 22.9593 26.6628 19 26.6628Z" fill="#4A729A"/>
<path d="M21.8517 18.6671H19.6644V15.1847C19.6644 14.8226 19.3599 14.5161 18.9999 14.5161C18.64 14.5161 18.3354 14.8226 18.3354 15.1847V19.3358C18.3354 19.6979 18.64 20.0044 18.9999 20.0044H21.8517C22.2117 20.0044 22.5162 19.6979 22.5162 19.3358C22.5162 18.9736 22.2117 18.6671 21.8517 18.6671Z" fill="#4A729A"/>
</g>
<defs>
<clipPath id="clip0_5_131">
<rect width="37" height="37" fill="white" transform="translate(0.5)"/>
</clipPath>
</defs>
</svg>
