<svg width="25" height="26" viewBox="0 0 25 26" fill="none" xmlns="http://www.w3.org/2000/svg">
<g clip-path="url(#clip0_5_138)">
<path d="M21.2441 0H3.75587C1.68156 0 0 1.74882 0 3.9061V22.0939C0 24.2512 1.68156 26 3.75587 26H21.2441C23.3184 26 25 24.2512 25 22.0939V3.9061C25 1.74882 23.3184 0 21.2441 0Z" fill="#349EF2" fill-opacity="0.2"/>
<path d="M11.611 7.28144C11.8252 6.74961 12.5498 6.74961 12.764 7.28144L13.9504 10.2274C14.0405 10.4512 14.2429 10.6041 14.4754 10.6241L17.536 10.8873C18.0886 10.9348 18.3125 11.6515 17.8924 12.0276L15.5649 14.1115C15.3882 14.2698 15.3109 14.5172 15.3644 14.7533L16.0695 17.8619C16.1969 18.4232 15.6107 18.8661 15.1368 18.5667L12.5119 16.9087C12.3126 16.7828 12.0624 16.7828 11.863 16.9087L9.23817 18.5667C8.7643 18.8661 8.17811 18.4232 8.30542 17.8619L9.01055 14.7533C9.06411 14.5172 8.9868 14.2698 8.81005 14.1115L6.48261 12.0276C6.06245 11.6515 6.28636 10.9348 6.83892 10.8873L9.89961 10.6241C10.132 10.6041 10.3345 10.4512 10.4245 10.2274L11.611 7.28144Z" fill="#359DF0"/>
</g>
<defs>
<clipPath id="clip0_5_138">
<rect width="25" height="26" fill="white"/>
</clipPath>
</defs>
</svg>
