<svg width="33" height="32" viewBox="0 0 33 32" fill="none" xmlns="http://www.w3.org/2000/svg">
<g clip-path="url(#clip0_5_89)">
<path d="M16.5 32C25.3366 32 32.5 24.8366 32.5 16C32.5 7.16344 25.3366 0 16.5 0C7.66344 0 0.5 7.16344 0.5 16C0.5 24.8366 7.66344 32 16.5 32Z" fill="url(#paint0_linear_5_89)"/>
<path d="M13.7298 16C13.7298 14.4698 14.9699 13.2291 16.5002 13.2291C18.0304 13.2291 19.2712 14.4698 19.2712 16C19.2712 17.5302 18.0304 18.771 16.5002 18.771C14.9699 18.771 13.7298 17.5302 13.7298 16ZM12.2318 16C12.2318 18.3574 14.1427 20.2682 16.5002 20.2682C18.8576 20.2682 20.7685 18.3574 20.7685 16C20.7685 13.6427 18.8576 11.7318 16.5002 11.7318C14.1427 11.7318 12.2318 13.6427 12.2318 16ZM19.94 11.5626C19.94 12.1132 20.3865 12.5603 20.9378 12.5603C21.4883 12.5603 21.9355 12.1132 21.9355 11.5626C21.9355 11.012 21.489 10.5655 20.9378 10.5655C20.3865 10.5655 19.94 11.012 19.94 11.5626ZM13.1416 22.7659C12.3311 22.729 11.8907 22.594 11.5979 22.4799C11.2098 22.3288 10.9332 22.1489 10.6418 21.8582C10.351 21.5674 10.1704 21.2908 10.02 20.9027C9.90586 20.61 9.7709 20.1695 9.73397 19.3591C9.69368 18.4829 9.68562 18.2197 9.68562 16C9.68562 13.7803 9.69435 13.5178 9.73397 12.6409C9.7709 11.8305 9.90653 11.3907 10.02 11.0973C10.1711 10.7092 10.351 10.4326 10.6418 10.1412C10.9325 9.85046 11.2091 9.66985 11.5979 9.51945C11.8907 9.40531 12.3311 9.27036 13.1416 9.23343C14.0178 9.19314 14.281 9.18509 16.5002 9.18509C18.72 9.18509 18.9825 9.19381 19.8594 9.23343C20.6698 9.27036 21.1096 9.40598 21.4031 9.51945C21.7912 9.66985 22.0678 9.85046 22.3592 10.1412C22.6499 10.4319 22.8299 10.7092 22.981 11.0973C23.0951 11.39 23.2301 11.8305 23.267 12.6409C23.3073 13.5178 23.3154 13.7803 23.3154 16C23.3154 18.2191 23.3073 18.4823 23.267 19.3591C23.2301 20.1695 23.0944 20.61 22.981 20.9027C22.8299 21.2908 22.6499 21.5674 22.3592 21.8582C22.0685 22.1489 21.7912 22.3288 21.4031 22.4799C21.1103 22.594 20.6698 22.729 19.8594 22.7659C18.9832 22.8062 18.72 22.8143 16.5002 22.8143C14.281 22.8143 14.0178 22.8062 13.1416 22.7659ZM13.0731 7.73817C12.1881 7.77846 11.5838 7.91879 11.0554 8.12424C10.5088 8.33641 10.0455 8.62109 9.58289 9.08303C9.12094 9.54497 8.83624 10.0082 8.62406 10.5555C8.4186 11.0839 8.27827 11.6881 8.23798 12.5731C8.19702 13.4594 8.18762 13.7427 8.18762 16C8.18762 18.2573 8.19702 18.5407 8.23798 19.4269C8.27827 20.3119 8.4186 20.9162 8.62406 21.4446C8.83624 21.9911 9.12026 22.4551 9.58289 22.917C10.0449 23.3789 10.5081 23.6629 11.0554 23.8758C11.5845 24.0812 12.1881 24.2216 13.0731 24.2618C13.9601 24.3021 14.2427 24.3122 16.5002 24.3122C18.7582 24.3122 19.0409 24.3028 19.9272 24.2618C20.8122 24.2216 21.4165 24.0812 21.9449 23.8758C22.4915 23.6629 22.9548 23.3789 23.4174 22.917C23.8794 22.4551 24.1634 21.9911 24.3762 21.4446C24.5817 20.9162 24.7227 20.3119 24.7623 19.4269C24.8026 18.54 24.812 18.2573 24.812 16C24.812 13.7427 24.8026 13.4594 24.7623 12.5731C24.722 11.6881 24.5817 11.0839 24.3762 10.5555C24.1634 10.0089 23.8794 9.54564 23.4174 9.08303C22.9555 8.62109 22.4915 8.33641 21.9456 8.12424C21.4165 7.91879 20.8122 7.77779 19.9279 7.73817C19.0416 7.69789 18.7582 7.68782 16.5008 7.68782C14.2427 7.68782 13.9601 7.69722 13.0731 7.73817Z" fill="white"/>
</g>
<defs>
<linearGradient id="paint0_linear_5_89" x1="6.10975" y1="-4.08778" x2="27.5829" y2="33.3171" gradientUnits="userSpaceOnUse">
<stop offset="0.078125" stop-color="#A431FF"/>
<stop offset="0.53125" stop-color="#FF9172"/>
<stop offset="1" stop-color="#FF15A2"/>
</linearGradient>
<clipPath id="clip0_5_89">
<rect width="32" height="32" fill="white" transform="translate(0.5)"/>
</clipPath>
</defs>
</svg>
