<svg width="193" height="45" viewBox="0 0 193 45" fill="none" xmlns="http://www.w3.org/2000/svg">
<g clip-path="url(#clip0_6_12)">
<path d="M53.4151 34.89V25.756H57.791C58.126 25.756 58.4481 25.756 58.7871 25.738L63.8371 34.889H69.2081L63.423 25.014C66.5571 23.917 68.622 21.149 68.622 17.514C68.622 12.489 64.925 9.116 59.7611 9.116H48.736V34.89H53.4151ZM53.4151 13.324H59.5751C62.0541 13.324 63.9501 15.163 63.9501 17.512C63.9501 20.03 62.0721 21.754 59.5941 21.774H53.4151V13.324ZM91.497 34.888V30.662H78.5011V23.785H89.5811V19.803H78.5011V13.343H91.326V9.113H73.8251V34.888H91.497ZM101.204 34.888V16.865L115.12 34.888H119.118V9.113H114.461V27.156L100.547 9.113H96.5271V34.888H101.206H101.204ZM135.998 34.888V13.323H143.601V9.115H123.733V13.323H131.341V34.888H135.998ZM152.897 34.888V24.768H163.975V20.788H152.897V13.343H165.723V9.113H148.222V34.888H152.899H152.897ZM182.584 34.888V25.053L192.669 9.113H187.167L180.276 20.883H180.256L173.309 9.113H167.861L177.907 25.09V34.888H182.584ZM18.1071 44C17.7871 44 17.4831 43.85 17.2901 43.59C16.6091 42.692 0.671051 26.856 0.671051 17.405C0.671051 7.955 8.49005 0 18.1041 0C27.7181 0 35.541 7.81 35.541 17.405C35.541 27 19.6051 42.701 18.9231 43.592C18.7291 43.851 18.43 44.002 18.1061 44.002V44H18.1071ZM18.1041 2.057C9.62005 2.057 2.72105 8.942 2.72105 17.405C2.72105 25.011 14.8181 36.707 18.1061 41.237C21.3981 36.725 33.4881 25.119 33.4881 17.405C33.4881 8.94 26.5861 2.057 18.1031 2.057H18.1041Z" fill="#D46966"/>
<path d="M15.628 23.133V17.944H18.113C18.306 17.944 18.487 17.944 18.68 17.932L21.547 23.131H24.599L21.313 17.521C23.095 16.898 24.267 15.324 24.267 13.261C24.267 10.409 22.167 8.49103 19.234 8.49103H12.972V23.131H15.628V23.133ZM15.628 10.885H19.126C20.534 10.885 21.611 11.929 21.611 13.265C21.611 14.695 20.543 15.674 19.137 15.687H15.627V10.887L15.628 10.885Z" fill="#D46966"/>
</g>
<defs>
<clipPath id="clip0_6_12">
<rect width="192" height="45" fill="white" transform="translate(0.671051)"/>
</clipPath>
</defs>
</svg>
