<svg width="33" height="32" viewBox="0 0 33 32" fill="none" xmlns="http://www.w3.org/2000/svg">
<g clip-path="url(#clip0_5_98)">
<path d="M16.5 32C25.3366 32 32.5 24.8366 32.5 16C32.5 7.16344 25.3366 0 16.5 0C7.66344 0 0.5 7.16344 0.5 16C0.5 24.8366 7.66344 32 16.5 32Z" fill="#25AAE6"/>
<path d="M13.3258 18.2037L13.0508 22.0716C13.4442 22.0716 13.6146 21.9026 13.819 21.6996L15.6636 19.9367L19.4859 22.7359C20.187 23.1265 20.6808 22.9208 20.87 22.091L23.3789 10.3348L23.3796 10.3341C23.602 9.29788 23.0049 8.89266 22.3219 9.14687L7.57428 14.7929C6.56779 15.1836 6.58303 15.7446 7.40318 15.9989L11.1735 17.1716L19.9313 11.6918C20.3435 11.4189 20.7183 11.5699 20.41 11.8428L13.3258 18.2037Z" fill="white"/>
</g>
<defs>
<clipPath id="clip0_5_98">
<rect width="32" height="32" fill="white" transform="translate(0.5)"/>
</clipPath>
</defs>
</svg>
