<svg width="33" height="32" viewBox="0 0 33 32" fill="none" xmlns="http://www.w3.org/2000/svg">
<g clip-path="url(#clip0_5_92)">
<path d="M16.5 32C25.3366 32 32.5 24.8366 32.5 16C32.5 7.16344 25.3366 0 16.5 0C7.66344 0 0.5 7.16344 0.5 16C0.5 24.8366 7.66344 32 16.5 32Z" fill="#0077FF"/>
<path d="M24.4048 12.6059C24.2022 13.2647 23.929 13.8381 23.5867 14.3587L23.601 14.3354C23.2648 14.9148 22.8632 15.5841 22.3964 16.3434C21.9961 16.943 21.7842 17.2533 21.7607 17.2745C21.6571 17.4087 21.5851 17.5732 21.5603 17.754L21.5596 17.7595C21.5798 17.9239 21.6534 18.0675 21.7607 18.1746L22.0609 18.5206C23.6671 20.2271 24.5704 21.4033 24.7711 22.0494C24.7974 22.1208 24.8124 22.203 24.8124 22.2891C24.8124 22.4397 24.7658 22.5786 24.687 22.6926L24.6885 22.6903C24.5564 22.8307 24.3718 22.9176 24.1677 22.9176C24.1451 22.9176 24.1219 22.9168 24.1001 22.9145H24.1031H22.1285C22.1277 22.9145 22.1262 22.9145 22.1247 22.9145C21.8718 22.9145 21.6391 22.823 21.4567 22.6709L21.459 22.6724C21.1933 22.4467 20.9569 22.2022 20.7452 21.9369L20.7385 21.9276C20.3927 21.5236 20.086 21.1835 19.8183 20.9073C18.9267 20.031 18.2687 19.5929 17.8444 19.5929C17.8287 19.5913 17.8107 19.5906 17.7919 19.5906C17.6681 19.5906 17.5525 19.6301 17.4572 19.6976L17.4594 19.6961C17.3814 19.797 17.3341 19.9273 17.3341 20.0678C17.3341 20.0957 17.3356 20.1221 17.3393 20.1492V20.1461C17.3191 20.3897 17.3071 20.673 17.3071 20.9593C17.3071 21.0516 17.3086 21.1431 17.3108 21.2347V21.2215V22.1208C17.3183 22.1572 17.3228 22.1991 17.3228 22.2418C17.3228 22.4296 17.2403 22.5972 17.1112 22.7081L17.1104 22.7089C16.82 22.8462 16.4807 22.9269 16.1227 22.9269C16.0462 22.9269 15.9711 22.9231 15.8968 22.9161L15.9066 22.9168C14.7252 22.8936 13.6294 22.5359 12.698 21.933L12.7243 21.9485C11.5903 21.2363 10.6506 20.3091 9.93458 19.2135L9.91432 19.1809C9.23433 18.2483 8.60014 17.1946 8.05975 16.0835L8.00722 15.964C7.69124 15.3418 7.36401 14.5767 7.08181 13.79L7.03678 13.6464C6.92195 13.2926 6.83864 12.8814 6.80411 12.4554L6.80261 12.436C6.80261 12.0439 7.02577 11.8479 7.47209 11.8479H9.44598C9.464 11.8463 9.48501 11.8456 9.50678 11.8456C9.69291 11.8456 9.86478 11.9115 10.0006 12.0225L9.99913 12.0209C10.1492 12.1908 10.2603 12.3996 10.3151 12.6323L10.3174 12.6416C10.6806 13.7023 11.0656 14.593 11.5084 15.4465L11.4582 15.3402C11.8199 16.0928 12.2199 16.7407 12.6763 17.3389L12.659 17.3149C13.0593 17.8228 13.3715 18.0768 13.5957 18.0768C13.6024 18.0776 13.6107 18.0776 13.6197 18.0776C13.7308 18.0776 13.8276 18.0155 13.8801 17.9224L13.8809 17.9208C13.9364 17.7734 13.9687 17.6019 13.9687 17.4235C13.9687 17.3855 13.9672 17.3475 13.9642 17.3102V17.3149V14.3052C13.9484 13.9506 13.8644 13.6193 13.724 13.3221L13.73 13.3368C13.637 13.132 13.5251 12.9551 13.3923 12.7976L13.3945 12.8007C13.2714 12.6734 13.1874 12.5066 13.1611 12.3204L13.1604 12.3158C13.1604 12.1839 13.2189 12.0651 13.3105 11.9876L13.3112 11.9868C13.402 11.9006 13.5236 11.8487 13.6565 11.8487H13.6625H16.7742C16.7907 11.8463 16.8094 11.8456 16.829 11.8456C16.9753 11.8456 17.1067 11.9138 17.1937 12.0209L17.1945 12.0217C17.2718 12.1676 17.3176 12.3421 17.3176 12.5268C17.3176 12.5563 17.3161 12.585 17.3138 12.6137V12.6098V16.6235C17.3123 16.6422 17.3116 16.6639 17.3116 16.6856C17.3116 16.8284 17.3498 16.9626 17.4159 17.0767L17.4144 17.0736C17.4692 17.1574 17.5607 17.2117 17.6643 17.2117H17.6651C17.7971 17.2024 17.9172 17.1574 18.0186 17.086L18.0163 17.0875C18.2204 16.9424 18.3961 16.7772 18.5484 16.5902L18.5514 16.5863C19.007 16.054 19.4273 15.4659 19.7936 14.8405L19.8228 14.7862C20.081 14.344 20.3602 13.7993 20.6131 13.2398L20.6597 13.1258L20.9944 12.4337C21.1107 12.0876 21.423 11.844 21.79 11.844C21.8042 11.844 21.8185 11.844 21.8328 11.8448H21.8305H23.8052C24.3385 11.8448 24.5387 12.0985 24.4056 12.6059H24.4048Z" fill="white"/>
</g>
<defs>
<clipPath id="clip0_5_92">
<rect width="32" height="32" fill="white" transform="translate(0.5)"/>
</clipPath>
</defs>
</svg>
